<?xml version="1.0" encoding="utf-8"?>
<!-- Generator: Adobe Illustrator 27.1.1, SVG Export Plug-In . SVG Version: 6.00 Build 0)  -->
<svg version="1.1" id="Calque_1" xmlns="http://www.w3.org/2000/svg" xmlns:xlink="http://www.w3.org/1999/xlink" x="0px" y="0px"
	 viewBox="0 0 512 489" style="enable-background:new 0 0 512 489;" xml:space="preserve">
<style type="text/css">
	.st0{fill:#727272;}
</style>
<path class="st0" d="M255.1,7c6.4,0,11.9,2.3,16.4,6.9c4.4,4.5,8.1,11.1,10.8,19.6l0.2,0.7l42.1,132.6c0.8,2.6,3.2,4.3,6,4.3
	l138.6-1.1c9.5,0,17,1.4,22.8,4.2c5.8,2.9,9.7,7.3,11.8,13.3c2.1,6.3,1.5,12.3-1.5,18.1c-3,5.6-8.2,11-15.4,16.1l-0.6,0.5l-113,81.1
	c-2.2,1.5-3.1,4.4-2.3,7l44.3,131.6c3,8.9,4,16.5,3.1,22.8c-0.9,6.3-4,11.5-9.1,15.5c-5.1,3.9-10.8,5.4-17.4,4.1
	c-6.3-1.2-13-4.5-20.4-9.9l-0.6-0.5l-112.2-82.2c-2.2-1.5-5.2-1.5-7.3,0l-111.9,82.2c-7.5,5.7-14.6,9.1-21,10.3
	c-6.4,1.2-12.3-0.1-17.7-4.1c-5.1-4-8.2-9.2-9.1-15.5c-0.9-6.2,0.1-13.5,2.9-22.1l44.5-132.5c0.9-2.6,0-5.4-2.3-7l-113-80.9
	c-7.5-5.3-12.9-10.8-16-16.6s-3.6-11.8-1.5-18.1c2.1-6.1,6.1-10.5,11.9-13.3c5.7-2.8,13-4.1,21.9-4.2h0.8l138.6,1.1
	c2.7,0,5.2-1.8,6-4.3l42.1-132.6c3-8.9,6.8-15.7,11.3-20.4C243.2,9.3,248.7,7,255.1,7z M255.2,33l-0.1,0.2"/>
</svg>
