<svg version="1.1" id="Calque_1" xmlns="http://www.w3.org/2000/svg" xmlns:xlink="http://www.w3.org/1999/xlink" x="0px" y="0px"
	 viewBox="0 0 512 490" style="enable-background:new 0 0 512 490;" xml:space="preserve">
<style type="text/css">
	.etoile-rouge{fill:#C53E23;}
</style>
<path class="etoile-rouge" d="M408.6,478.5c5-4,8.1-9.2,9.1-15.4s-0.1-13.9-3.1-22.7L369,304.8l116.3-83.4c7.5-5.2,12.9-10.8,15.9-16.6
	c3.1-5.8,3.6-11.7,1.5-18c-2.1-6.1-6-10.5-11.7-13.3c-5.8-2.8-13.4-4.2-22.7-4.2l-142.5,1.1L282.5,34.2c-2.9-8.8-6.5-15.6-11-20.2
	c-4.6-4.7-10.1-7-16.5-7c-6.4,0-11.8,2.3-16.3,6.9s-8.1,11.3-11.2,20.3l-43.3,136.3l-142.5-1.1c-9.3,0-16.8,1.4-22.6,4.2
	c-5.9,2.9-9.8,7.3-11.8,13.3c-2.1,6.3-1.5,12.2,1.5,18c3.1,5.8,8.4,11.2,15.9,16.6L141,304.9L95.5,440.3c-3,8.8-4,16.5-3.1,22.7
	s3.9,11.4,9.1,15.4c5.2,3.9,11.1,5.4,17.5,4.1c6.4-1.2,13.4-4.6,20.9-10.3L255,387.7l115.3,84.6c7.5,5.7,14.5,9.1,20.9,10.3
	C397.7,483.8,403.5,482.5,408.6,478.5L408.6,478.5z"/>
</svg>
