<svg version="1.1" id="Calque_1" xmlns="http://www.w3.org/2000/svg" xmlns:xlink="http://www.w3.org/1999/xlink" x="0px" y="0px"
	 viewBox="0 0 512 489" style="enable-background:new 0 0 512 489;" xml:space="preserve">
<style type="text/css">
	.etoile-gris{fill:#C53E23;}
	.etoile-rouge{fill:#727272;}
</style>
<path class="etoile-gris" d="M255.7,358.9L255.7,358.9v-81.6V6c-6.4,0-11.9,2.3-16.4,7s-8.2,11.4-11.2,20.4l-42.2,133.1
	c-0.8,2.6-3.2,4.4-6,4.4l-139.1-1.1h-0.8c-8.9,0.1-16.3,1.6-22,4.3c-5.9,2.9-9.9,7.4-11.9,13.4c-2.1,6.3-1.6,12.3,1.6,18.2
	s8.5,11.3,16.1,16.7l113.5,81.4c2.2,1.6,3.1,4.5,2.3,7.1l-44.7,133c-2.9,8.6-3.8,16.1-2.9,22.2c0.9,6.3,4,11.5,9.1,15.6
	c5.3,3.9,11.2,5.4,17.7,4.1c6.4-1.2,13.5-4.7,21.1-10.4L252,392.6c1.1-0.8,2.4-1.2,3.6-1.2V358.9z"/>
<path class="etoile-rouge" d="M255.7,358.9L255.7,358.9v-81.6V6c6.4,0,11.9,2.3,16.4,7s8.2,11.4,11.2,20.4l42.2,133.1c0.8,2.6,3.2,4.4,6,4.4
	l139.1-1.1h0.8c8.9,0.1,16.3,1.6,22,4.3c5.9,2.9,9.9,7.4,11.9,13.4c2.1,6.3,1.6,12.3-1.6,18.2c-3.1,5.8-8.5,11.3-16.1,16.7
	l-113.5,81.4c-2.2,1.6-3.1,4.5-2.3,7.1l44.7,133c2.9,8.6,3.8,16.1,2.9,22.2c-0.9,6.3-4,11.5-9.1,15.6c-5.3,3.9-11.2,5.4-17.7,4.1
	c-6.4-1.2-13.5-4.7-21.1-10.4l-112.3-82.6c-1.1-0.8-2.4-1.2-3.6-1.2V358.9z"/>
</svg>
