<?xml version="1.0" encoding="utf-8"?>
<!-- Generator: Adobe Illustrator 26.5.0, SVG Export Plug-In . SVG Version: 6.00 Build 0)  -->
<svg version="1.1" id="Calque_1" xmlns="http://www.w3.org/2000/svg" xmlns:xlink="http://www.w3.org/1999/xlink" x="0px" y="0px"
	 viewBox="0 0 512 512" style="enable-background:new 0 0 512 512;" xml:space="preserve">
<style type="text/css">
	.st0{fill:#424EB1;}
</style>
<path class="st0" d="M405.3,460.2c4.9-3.9,7.9-8.9,8.8-15c0.9-6.1-0.1-13.5-3-22.1l-44.3-131.7l113-81.1
	c7.3-5.1,12.5-10.5,15.5-16.1c3-5.6,3.5-11.4,1.5-17.5c-2-5.9-5.8-10.2-11.4-12.9s-13-4.1-22.1-4.1l-138.5,1.1L282.7,28.4
	c-2.8-8.6-6.3-15.2-10.7-19.6C267.5,4.2,262.2,2,256,2c-6.2,0-11.5,2.2-15.8,6.7c-4.3,4.5-7.9,11-10.9,19.7l-42.1,132.5l-138.5-1.1
	c-9,0-16.3,1.4-22,4.1c-5.7,2.8-9.5,7.1-11.5,12.9c-2,6.1-1.5,11.9,1.5,17.5c3,5.6,8.2,10.9,15.5,16.1l113,81.1L101,423.1
	c-2.9,8.6-3.9,16-3,22.1c0.9,6.1,3.8,11.1,8.8,15c5.1,3.8,10.8,5.2,17,4c6.2-1.2,13-4.5,20.3-10L256,372l112.1,82.2
	c7.3,5.5,14.1,8.8,20.3,10C394.7,465.4,400.3,464.1,405.3,460.2L405.3,460.2z"/>
</svg>
