<?xml version="1.0" encoding="utf-8"?>
<!-- Generator: Adobe Illustrator 26.5.0, SVG Export Plug-In . SVG Version: 6.00 Build 0)  -->
<svg version="1.1" id="Calque_1" xmlns="http://www.w3.org/2000/svg" xmlns:xlink="http://www.w3.org/1999/xlink" x="0px" y="0px"
	 viewBox="0 0 512 512" style="enable-background:new 0 0 512 512;" xml:space="preserve">
<style type="text/css">
	.st0{fill:#C1C1C1;}
</style>
<path class="st0" d="M256,2c6.2,0,11.5,2.2,15.9,6.7c4.3,4.4,7.8,10.7,10.5,19l0.2,0.7l40.7,128.3c0.8,2.5,3.1,4.2,5.8,4.2
	l134.1-1.1c9.2,0,16.5,1.4,22.1,4.1c5.6,2.8,9.4,7.1,11.4,12.9c2,6.1,1.5,11.9-1.5,17.5c-2.9,5.4-7.9,10.6-14.9,15.6l-0.6,0.5
	l-109.4,78.5c-2.1,1.5-3,4.3-2.2,6.8L411,423.1c2.9,8.6,3.9,16,3,22.1c-0.9,6.1-3.9,11.1-8.8,15c-4.9,3.8-10.5,5.2-16.8,4
	c-6.1-1.2-12.6-4.4-19.7-9.6l-0.6-0.5l-108.6-79.6c-2.1-1.5-5-1.5-7.1,0l-108.3,79.6c-7.3,5.5-14.1,8.8-20.3,10
	c-6.2,1.2-11.9-0.1-17.1-4c-4.9-3.9-7.9-8.9-8.8-15c-0.9-6,0.1-13.1,2.8-21.4l43.1-128.2c0.9-2.5,0-5.2-2.2-6.8L32.2,210.4
	c-7.3-5.1-12.5-10.5-15.5-16.1c-3-5.6-3.5-11.4-1.5-17.5c2-5.9,5.9-10.2,11.5-12.9c5.5-2.7,12.6-4,21.2-4.1h0.8l134.1,1.1
	c2.6,0,5-1.7,5.8-4.2l40.7-128.3c2.9-8.6,6.6-15.2,10.9-19.7C244.5,4.2,249.8,2,256,2z M256.1,27.2l-0.1,0.2"/>
</svg>
