<?xml version="1.0" encoding="utf-8"?>
<!-- Generator: Adobe Illustrator 26.5.0, SVG Export Plug-In . SVG Version: 6.00 Build 0)  -->
<svg version="1.1" id="Calque_1" xmlns="http://www.w3.org/2000/svg" xmlns:xlink="http://www.w3.org/1999/xlink" x="0px" y="0px"
	 viewBox="0 0 512 512" style="enable-background:new 0 0 512 512;" xml:space="preserve">
<style type="text/css">
	.st0{fill:#424EB1;}
	.st1{fill:#C1C1C1;}
</style>
<path class="st0" d="M256,342.2L256,342.2v-78.7V2c-6.2,0-11.5,2.2-15.8,6.7c-4.3,4.5-7.9,11-10.8,19.7l-40.7,128.3
	c-0.8,2.5-3.1,4.2-5.8,4.2l-134.1-1.1H48c-8.6,0.1-15.7,1.5-21.2,4.1c-5.7,2.8-9.5,7.1-11.5,12.9c-2,6.1-1.5,11.9,1.5,17.5
	c3,5.6,8.2,10.9,15.5,16.1l109.4,78.5c2.1,1.5,3,4.3,2.2,6.8l-43.1,128.2c-2.8,8.3-3.7,15.5-2.8,21.4c0.9,6.1,3.9,11.1,8.8,15
	c5.1,3.8,10.8,5.2,17.1,4c6.2-1.2,13-4.5,20.3-10l108.3-79.6c1.1-0.8,2.3-1.2,3.5-1.2V342.2z"/>
<path class="st1" d="M256,342.2L256,342.2v-78.7V2c6.2,0,11.5,2.2,15.8,6.7c4.3,4.5,7.9,11,10.8,19.7l40.7,128.3
	c0.8,2.5,3.1,4.2,5.8,4.2l134.1-1.1h0.8c8.6,0.1,15.7,1.5,21.2,4.1c5.7,2.8,9.5,7.1,11.5,12.9c2,6.1,1.5,11.9-1.5,17.5
	c-3,5.6-8.2,10.9-15.5,16.1l-109.4,78.5c-2.1,1.5-3,4.3-2.2,6.8l43.1,128.2c2.8,8.3,3.7,15.5,2.8,21.4c-0.9,6.1-3.9,11.1-8.8,15
	c-5.1,3.8-10.8,5.2-17.1,4c-6.2-1.2-13-4.5-20.3-10l-108.3-79.6c-1.1-0.8-2.3-1.2-3.5-1.2V342.2z"/>
</svg>
