<svg version="1.1" id="fleche-mosaic" xmlns="http://www.w3.org/2000/svg" xmlns:xlink="http://www.w3.org/1999/xlink" x="0px" y="0px"
	 viewBox="0 0 107.4 107.1" style="enable-background:new 0 0 107.4 107.1;" xml:space="preserve">
<path fill="#5D23D0" stroke="#5D23D0" stroke-width="6" stroke-miterlimit="10"; d="M100.4,95.3l-8.4-8.4l0,0L12.1,7.1c0,0-2.6-2-4.8,0.2C5,9.5,7,12.1,7,12.1l79.6,79.1l0,0l8.9,8.9
	c0,0,2.4,1.9,4.6-0.2C102.3,97.8,100.4,95.3,100.4,95.3z"/>
<path class="st0" d="M95.4,6.9L87,15.3l0,0L7.1,95.2c0,0-2,2.6,0.2,4.8c2.2,2.2,4.8,0.2,4.8,0.2l79.1-79.6l0,0l8.9-8.9
	c0,0,1.9-2.4-0.2-4.6C97.9,5,95.4,6.9,95.4,6.9z"/>
</svg>
