<?xml version="1.0" encoding="UTF-8"?><svg id="aesthe" xmlns="http://www.w3.org/2000/svg" viewBox="0 0 248.54 69.35"><defs><style>.cls-1{fill:#5d23d0;}</style></defs><path class="cls-1" d="m40.71,20.43c0,11.28-9.11,20.43-20.36,20.43S0,31.71,0,20.43,9.11,0,20.35,0s20.36,9.15,20.36,20.43"/><path d="m167.74,12.92c0-1.07,0-1.97,0-2.96,4.59,0,9.11,0,13.78-.01,0,7.77.02,15.5.02,23.62,1.15-.93,2.02-1.63,2.88-2.34,3.57-2.94,7.55-4.64,12.31-4.12,4.75.52,7.95,3.45,8.69,8.19.15,1,.23,2.02.24,3.04.02,7.75.02,15.5.02,23.26,0,2.74.71,3.44,3.49,3.45.76,0,1.52,0,2.37,0,0,.99,0,1.9,0,2.92-6.12,0-12.25,0-18.47.01,0-.92,0-1.86,0-2.84.92-.07,1.79-.14,2.67-.2,1.04-.08,1.61-.69,1.82-1.66.11-.57.21-1.17.21-1.75,0-7.41,0-14.83-.01-22.24,0-.26,0-.51,0-.76-.19-5.11-3.63-7.67-8.35-5.75-2.69,1.09-5.02,3.08-7.48,4.72-.26.17-.34.75-.34,1.14-.02,7.71-.02,15.42,0,23.13,0,2.49.81,3.27,3.28,3.31.46,0,.91,0,1.45,0v2.94c-6.16,0-12.29,0-18.5.01v-2.94h2.26c2.85-.01,3.56-.71,3.55-3.52,0-4.74-.01-9.49-.01-14.24,0-10.34-.02-20.67-.03-31.01,0-2.71-.68-3.38-3.37-3.39-.8,0-1.59,0-2.45,0"/><path d="m54.8,65.13v3.08h-1.38c-7.09,0-14.18.07-21.27-.01-2.32-.03-4.68-.19-6.94-.71-6.65-1.51-8.96-6.24-8.22-12.31.67-5.56,3.99-8.73,9.97-9.47,3.19-.4,6.44-.31,9.66-.36,3.45-.06,3.98-.55,3.96-4,0-1.65.04-3.3-.03-4.95-.12-3.23-1.96-5.28-5.14-5.83-4.98-.87-8.5,1.34-9.83,6.17-.37,1.34-.74,2.69-1.11,4.06-1.67,0-3.27,0-4.96,0-.04-.3-.11-.59-.09-.86.21-2.87.42-5.75.7-8.61.04-.37.34-.9.65-1.03,5.48-2.25,11.13-3.63,17.12-2.98,2.39.26,4.67.91,6.66,2.31,3.07,2.16,4.27,5.28,4.29,8.9.03,7.63.01,15.25.03,22.88,0,.5,0,1.02.09,1.52.26,1.55.74,2.05,2.32,2.19,1.13.1,2.27.02,3.54.02m-14.09-16.67c-3.08,0-5.84-.08-8.58.04-1.96.09-3.68.87-4.95,2.49-2.27,2.89-2.16,9.47.35,12.16,1.88,2.01,4.39,2.23,6.95,1.92,3.31-.41,5.41-2.14,5.79-5.44.42-3.67.32-7.39.44-11.16"/><path d="m92.08,48.4c-8.58,0-17.02.02-25.62.02.15,5,.69,9.79,4.29,13.51,3.07,3.18,7.01,3.67,11.09,2.54,2.39-.67,4.64-1.82,6.96-2.74.54-.22,1.08-.43,1.87-.75,0,1.25.03,2.29-.02,3.32-.01.23-.24.55-.46.67-4.54,2.5-9.22,4.49-14.56,4.39-8.37-.15-14.83-4.92-17.17-12.95-2.14-7.34-1.71-14.53,2.2-21.24,3.32-5.7,8.59-8.12,15.05-8.04,6.53.08,11.56,2.83,14.46,8.83,1.87,3.87,2.16,8.03,1.9,12.45m-16.97-3v.02c1.7,0,3.39.02,5.09,0,1.63-.03,2.24-.55,2.48-2.12.55-3.51,0-6.84-1.8-9.92-2.03-3.48-6.41-4.26-9.55-1.77-3.09,2.45-4.93,8.36-3.79,12.14.32,1.04.93,1.68,2.1,1.67,1.82-.01,3.65,0,5.47,0"/><path d="m127.38,40.46c-1.01,0-1.89.06-2.77-.03-.28-.03-.63-.37-.75-.66-.48-1.13-.85-2.3-1.31-3.44-2.65-6.63-9.95-6.96-13.93-4.6-3.45,2.04-3.79,6.88-.53,9.19,1.9,1.35,4.18,2.19,6.34,3.15,2.75,1.22,5.68,2.07,8.29,3.52,5.29,2.93,7.27,8.74,5.2,14.17-1.12,2.93-3.28,4.82-6.11,5.92-6.14,2.38-12.27,1.83-18.46-.02-2.94-.88-4.58-2.19-4.36-5.55.16-2.33-.38-4.71-.63-7.27,1.09,0,2.09-.05,3.08.03.25.02.57.44.69.74.52,1.38,1.01,2.78,1.47,4.19,1.17,3.55,3.67,5.65,7.31,6.01,2.27.22,4.65-.02,6.9-.44,2.17-.4,3.52-2,3.89-4.22.37-2.26-.16-4.34-2.16-5.59-1.85-1.15-3.9-2.01-5.92-2.88-2.56-1.11-5.27-1.92-7.75-3.19-6.11-3.11-8.31-9.04-5.76-15.16,1.53-3.66,4.51-5.62,8.21-6.61,4.49-1.2,8.92-.6,13.3.67,1.26.37,2.51.8,3.77,1.15.64.18.96.45,1.02,1.19.27,3.2.62,6.38.96,9.72"/><path d="m160.98,31.51c-2.69,0-5.31,0-7.93,0-2.89,0-3.52.64-3.52,3.51,0,8.26.09,16.52,0,24.78-.05,4.11,2.18,4.95,5.49,3.83,1.41-.47,2.79-1.02,4.19-1.51.43-.15.87-.24,1.55-.42,0,1.04.04,1.9-.03,2.76-.02.25-.32.61-.56.69-3.54,1.17-7.05,2.48-10.66,3.38-3.51.88-6.52-.56-7.65-3.43-.51-1.3-.71-2.8-.72-4.21-.07-9.23-.05-18.47-.06-27.71v-1.65c-2.74,0-5.34,0-8.01,0,0-1.15,0-2.15,0-3.29h4.21c3.22,0,3.82-.63,3.81-3.91,0-2.04-.03-4.07.02-6.1,0-.37.29-.97.57-1.05,2.36-.69,4.74-1.3,7.12-1.9.19-.05.41.03.71.05,0,4.26,0,8.49,0,12.85,3.86,0,7.61,0,11.47,0,0,1.15,0,2.18,0,3.34"/><path d="m248.44,48.28c-8.55,0-16.98.02-25.54.02.03,4.77.63,9.3,3.75,12.97,3.08,3.62,7.23,4.27,11.62,3.06,2.43-.67,4.73-1.85,7.08-2.81.5-.2,1-.39,1.75-.68,0,1.24.03,2.27-.02,3.3-.01.23-.24.55-.46.67-4.65,2.57-9.46,4.6-14.94,4.39-8.33-.32-14.68-5.14-16.89-13.16-2.04-7.39-1.63-14.64,2.46-21.32,3.48-5.68,8.85-7.92,15.35-7.71,9.45.29,14.98,6.82,15.78,15.76.14,1.56.11,3.13.15,4.7,0,.2-.05.41-.1.81m-16.9-3h0c1.7,0,3.39.04,5.09,0,1.6-.04,2.13-.44,2.41-2.04.63-3.68.06-7.19-1.99-10.34-2.08-3.21-6.23-3.81-9.24-1.48-3.14,2.43-5.01,8.36-3.85,12.23.31,1.05.97,1.65,2.12,1.64,1.82-.01,3.65,0,5.47,0"/><path d="m226.79,27.62h9.12s-.01-12.5-.01-12.5c-.3-.03-.52-.11-.71-.06-2.38.61-4.77,1.21-7.13,1.9-.28.08-.56.69-.57,1.06-.05,2.03-.03,4.07-.02,6.1,0,1.63-.14,2.93-.68,3.5"/></svg>